<svg width="1200" height="630" viewBox="0 0 1200 630" xmlns="http://www.w3.org/2000/svg">
  <defs>
    <pattern id="grid" width="42" height="42" patternUnits="userSpaceOnUse">
      <path d="M42 0H0V42" fill="none" stroke="#d7cbb8" stroke-width="1"/>
    </pattern>
    <filter id="shadow" x="-20%" y="-20%" width="140%" height="150%">
      <feDropShadow dx="0" dy="14" stdDeviation="16" flood-color="#182126" flood-opacity=".18"/>
    </filter>
  </defs>
  <rect width="1200" height="630" fill="#f0eae0"/>
  <rect width="1200" height="630" fill="url(#grid)" opacity=".85"/>
  <rect x="54" y="52" width="1092" height="526" rx="24" fill="#fffdf8" stroke="#182126" stroke-width="4" filter="url(#shadow)"/>
  <rect x="54" y="52" width="1092" height="78" rx="24" fill="#12342e"/>
  <path d="M54 106h1092v24H54z" fill="#12342e"/>
  <text x="92" y="101" fill="#f3ecdd" font-family="Inter, Arial, sans-serif" font-size="25" font-weight="900" letter-spacing="3">RESEARCH QUESTION FIT</text>
  <text x="92" y="198" fill="#182126" font-family="Inter, Arial, sans-serif" font-size="62" font-weight="900">Pick the table</text>
  <text x="92" y="263" fill="#182126" font-family="Inter, Arial, sans-serif" font-size="62" font-weight="900">that matches the RQ</text>
  <text x="96" y="320" fill="#435158" font-family="Inter, Arial, sans-serif" font-size="26" font-weight="500">Before analysis, decide what view of the data can carry the claim.</text>

  <g transform="translate(86 370)">
    <rect x="0" y="0" width="262" height="92" rx="14" fill="#e8f1ec" stroke="#182126" stroke-width="3"/>
    <text x="22" y="34" fill="#1f4f46" font-family="JetBrains Mono, Consolas, monospace" font-size="17" font-weight="900">DESCRIBE</text>
    <text x="22" y="66" fill="#314048" font-family="Inter, Arial, sans-serif" font-size="19" font-weight="700">unit + missingness</text>
  </g>
  <g transform="translate(374 370)">
    <rect x="0" y="0" width="262" height="92" rx="14" fill="#fff7df" stroke="#182126" stroke-width="3"/>
    <text x="22" y="34" fill="#8a6118" font-family="JetBrains Mono, Consolas, monospace" font-size="17" font-weight="900">PREDICT</text>
    <text x="22" y="66" fill="#314048" font-family="Inter, Arial, sans-serif" font-size="19" font-weight="700">split + leakage check</text>
  </g>
  <g transform="translate(662 370)">
    <rect x="0" y="0" width="262" height="92" rx="14" fill="#fff1ed" stroke="#182126" stroke-width="3"/>
    <text x="22" y="34" fill="#9d2d2d" font-family="JetBrains Mono, Consolas, monospace" font-size="17" font-weight="900">EVALUATE</text>
    <text x="22" y="66" fill="#314048" font-family="Inter, Arial, sans-serif" font-size="19" font-weight="700">design + comparison</text>
  </g>

  <g transform="translate(806 168)">
    <rect x="0" y="0" width="290" height="150" rx="18" fill="#182126" stroke="#182126" stroke-width="3"/>
    <rect x="18" y="22" width="254" height="26" rx="5" fill="#f3ecdd"/>
    <rect x="18" y="62" width="112" height="22" rx="5" fill="#f5c86a"/>
    <rect x="144" y="62" width="128" height="22" rx="5" fill="#6fb49e"/>
    <rect x="18" y="98" width="86" height="22" rx="5" fill="#d86a58"/>
    <rect x="118" y="98" width="154" height="22" rx="5" fill="#f3ecdd"/>
  </g>
  <path d="M739 244c33 0 47 0 72 0" stroke="#b5392a" stroke-width="6" stroke-linecap="round"/>
  <path d="M790 220l24 24-24 24" fill="none" stroke="#b5392a" stroke-width="6" stroke-linecap="round" stroke-linejoin="round"/>

  <text x="92" y="535" fill="#657178" font-family="JetBrains Mono, Consolas, monospace" font-size="20" font-weight="800">data shape -> defensible table -> safe claim wording</text>
</svg>
