<svg xmlns="http://www.w3.org/2000/svg" width="1200" height="630" viewBox="0 0 1200 630" role="img" aria-labelledby="title desc">
  <title id="title">API to NLP Dashboard Guidebook Thumbnail</title>
  <desc id="desc">A generated editorial thumbnail showing REST API sources flowing into parsing, NLP, and a dashboard.</desc>
  <rect width="1200" height="630" fill="#f2eadc"/>
  <defs>
    <pattern id="grid" width="48" height="48" patternUnits="userSpaceOnUse">
      <path d="M48 0H0v48" fill="none" stroke="#182126" stroke-opacity=".08" stroke-width="1"/>
    </pattern>
    <marker id="arrow" markerWidth="12" markerHeight="12" refX="10" refY="6" orient="auto">
      <path d="M1,1 L11,6 L1,11 Z" fill="#284c63"/>
    </marker>
  </defs>
  <rect width="1200" height="630" fill="url(#grid)" opacity=".8"/>
  <text x="70" y="92" font-family="Inter, Arial, sans-serif" font-size="24" font-weight="800" letter-spacing="5" fill="#b35c35">EDUCATIAN WORKFLOW GUIDE</text>
  <text x="70" y="180" font-family="Inter, Arial, sans-serif" font-size="76" font-weight="900" fill="#182126">API -> NLP</text>
  <text x="70" y="255" font-family="Georgia, serif" font-size="70" font-style="italic" fill="#284c63">Dashboard</text>
  <text x="72" y="306" font-family="Inter, Arial, sans-serif" font-size="24" fill="#314048">REST data, web parsing, structured NLP, and dashboard delivery.</text>
  <g transform="translate(640 120)">
    <rect x="0" y="0" width="170" height="96" rx="12" fill="#fffdf8" stroke="#182126" stroke-width="3"/>
    <text x="24" y="38" font-family="JetBrains Mono, Consolas, monospace" font-size="16" font-weight="800" fill="#284c63">REST API</text>
    <text x="24" y="66" font-family="Inter, Arial, sans-serif" font-size="18" fill="#314048">JSON payload</text>
    <rect x="240" y="0" width="170" height="96" rx="12" fill="#fffdf8" stroke="#182126" stroke-width="3"/>
    <text x="264" y="38" font-family="JetBrains Mono, Consolas, monospace" font-size="16" font-weight="800" fill="#b35c35">PARSE</text>
    <text x="264" y="66" font-family="Inter, Arial, sans-serif" font-size="18" fill="#314048">clean schema</text>
    <rect x="120" y="170" width="170" height="96" rx="12" fill="#fffdf8" stroke="#182126" stroke-width="3"/>
    <text x="144" y="208" font-family="JetBrains Mono, Consolas, monospace" font-size="16" font-weight="800" fill="#596f4f">NLP</text>
    <text x="144" y="236" font-family="Inter, Arial, sans-serif" font-size="18" fill="#314048">labels + themes</text>
    <rect x="360" y="170" width="170" height="96" rx="12" fill="#182126" stroke="#182126" stroke-width="3"/>
    <text x="384" y="208" font-family="JetBrains Mono, Consolas, monospace" font-size="16" font-weight="800" fill="#f2eadc">DASHBOARD</text>
    <text x="384" y="236" font-family="Inter, Arial, sans-serif" font-size="18" fill="#d9cfbd">filters + views</text>
    <path d="M170 48H230" stroke="#284c63" stroke-width="4" marker-end="url(#arrow)"/>
    <path d="M325 96C310 132 270 152 236 170" stroke="#284c63" stroke-width="4" fill="none" marker-end="url(#arrow)"/>
    <path d="M290 218H350" stroke="#284c63" stroke-width="4" marker-end="url(#arrow)"/>
    <g fill="none" stroke="#b4862e" stroke-width="3" opacity=".9">
      <path d="M380 52c42 8 70 38 82 82"/>
      <path d="M60 98c-30 54-18 104 36 148"/>
    </g>
  </g>
  <rect x="70" y="500" width="330" height="52" rx="8" fill="#182126"/>
  <text x="96" y="534" font-family="JetBrains Mono, Consolas, monospace" font-size="18" font-weight="800" fill="#f2eadc">pipeline-first, UI-second</text>
</svg>
